PathFileType	4	(X/Y/Z)	C:/Users/beibeiliu/ov580/test_trc/User3\sequence.26_training_dense_left.trc
DataRate	CameraRate	NumFrames	NumMarkers	Units	OrigDataRate	OrigDataStartFrame	OrigNumFrames
120	120	21	19	mm	120	79	105
Frame#	Time	ThumbCMC			ThumbMCP			ThumbIP			ThumbTip			IndexMCP			IndexPIP			IndexTip			MiddleMCP			MiddlePIP			MiddleTip			RingMCP			RingPIP			RingTip			PinkyMCP			PinkyPIP			PinkyTip			BackHand1			BackHand2			BackHand3	
		X0	Y0	Z0	X1	Y1	Z1	X2	Y2	Z2	X3	Y3	Z3	X4	Y4	Z4	X5	Y5	Z5	X6	Y6	Z6	X7	Y7	Z7	X8	Y8	Z8	X9	Y9	Z9	X10	Y10	Z10	X11	Y11	Z11	X12	Y12	Z12	X13	Y13	Z13	X14	Y14	Z14	X15	Y15	Z15	X16	Y16	Z16	X17	Y17	Z17	X18	Y18	Z18	
78	0.65	-41.2964	-2.31723	35.9128	-30.2514	3.02346	7.88535	-18.7938	5.79539	-16.7881	-13.0012	7.45318	-38.5427	-65.3453	8.14947	-36.8194	-63.5269	-23.321	-40.1173	-60.9234	-25.6069	-6.86902	-87.1467	5.28555	-33.1463	-81.3397	-29.8231	-25.3396	-73.5979	-19.9828	9.97896	-100.992	1.20206	-23.7082	-98.4551	-29.8677	-11.2925	-87.9708	-18.9612	16.5055	-115.874	-1.61873	-13.4116	-104.264	-27.4095	-1.07142	-97.1794	-14.9241	23.7444	-97.9084	29.1268	23.4471	-98.2053	21.4252	51.6033	-64.9215	23.8847	33.8682	
79	0.658333	-40.7321	2.73814	34.5056	-25.8377	9.45222	11.1691	-10.1867	16.659	-13.5477	-3.20286	19.4935	-33.9943	-65.9053	18.2742	-36.6532	-65.8903	-15.2328	-47.1764	-59.7806	-27.8127	-20.4153	-86.4515	9.43217	-35.6707	-80.2733	-22.1218	-36.2005	-75.4159	-23.5603	2.61403	-98.9881	0.710354	-27.1448	-96.1879	-26.6611	-15.1713	-83.6127	-19.2432	13.5667	-114.275	-1.43476	-14.3648	-104.803	-26.3008	-4.8185	-94.7543	-15.623	21.5184	-99.4662	30.3272	24.9557	-95.0954	24.7406	52.5135	-64.5196	28.7408	34.3898	
80	0.666667	-39.6022	5.61524	34.4857	-20.7133	11.7465	14.5121	-10.4922	21.3882	-12.2882	-0.943337	22.827	-31.3075	-65.1132	26.9568	-40.8832	-67.0233	-0.879088	-58.9946	-60.3716	-26.5088	-40.4141	-86.2508	17.4548	-37.7263	-84.2327	-15.8803	-44.7033	-74.3934	-28.5085	-10.7701	-97.8133	8.07498	-25.4057	-93.0197	-21.696	-23.3217	-79.4394	-19.5039	9.70046	-115.474	-2.09244	-14.6691	-100.629	-21.2134	-7.86231	-91.2644	-16.5934	20.858	-99.7454	36.1919	22.3205	-90.9237	24.359	53.8014	-62.1176	29.9305	35.6558	
81	0.675	-33.5183	6.51153	35.5247	-19.4249	12.822	11.8676	-6.37227	20.7611	-12.745	2.39248	21.1203	-31.6161	-62.4163	31.456	-37.7564	-67.4084	14.0337	-63.7472	-68.4902	-19.6404	-62.6238	-83.3366	24.9518	-40.0723	-83.7985	-4.11458	-56.9153	-82.5234	-33.6683	-31.397	-100.797	11.1694	-25.6621	-99.016	-19.0865	-28.6779	-80.4329	-26.4556	3.02392	-110.824	1.23238	-14.8936	-99.9687	-21.4144	-9.59064	-89.8012	-19.744	20.8471	-98.2193	35.4264	25.5615	-94.3342	25.2415	54.2475	-61.6121	30.3734	34.6238	
82	0.683333	-34.3105	6.14927	35.5005	-21.3896	8.25301	14.288	-7.77376	14.8706	-15.4226	-1.26333	16.642	-35.5669	-60.8865	32.7514	-37.8613	-64.3849	18.7078	-64.7495	-71.6265	-9.31512	-74.9809	-85.1905	31.5324	-35.9972	-89.5432	5.40425	-62.9674	-90.2249	-30.4899	-54.2865	-102.678	14.594	-27.2214	-104.635	-14.9403	-34.1464	-86.6551	-33.3943	-11.3865	-115.454	5.81624	-10.5494	-106.399	-22.2172	-11.6996	-92.3298	-25.3806	14.157	-93.8604	36.9498	24.1681	-89.5215	27.3005	56.0329	-61.4691	31.1126	38.1093	
83	0.691667	-36.3136	-0.425781	37.559	-19.036	-0.337373	11.2086	-11.4113	1.84248	-16.6957	-4.03472	0.107646	-39.7995	-59.8005	30.4116	-35.1688	-65.497	21.1035	-64.9155	-71.1487	-1.26444	-82.2227	-88.9161	35.0652	-37.4462	-96.2426	18.7306	-63.8729	-100.072	-14.5414	-72.7108	-104.269	18.5961	-25.5099	-110.524	-8.33914	-40.4369	-100.123	-37.5184	-23.5293	-120.048	5.92041	-9.6338	-115.756	-21.1956	-14.2734	-94.5621	-31.5064	6.08688	-95.8102	34.4117	26.6672	-91.8297	25.4692	57.8928	-59.4961	28.863	36.2939	
84	0.7	-36.0075	-2.73652	31.3861	-22.7117	-9.76907	5.39345	-12.2613	-13.8879	-22.0548	-11.677	-20.0821	-42.8634	-60.9107	28.9885	-34.7293	-67.3363	23.2516	-68.1881	-69.3093	7.95427	-87.9059	-87.1103	34.765	-38.0315	-98.397	28.954	-64.2263	-105.105	0.355678	-87.6833	-109.053	18.9583	-27.4313	-115.122	-6.00407	-47.7942	-110.471	-37.2245	-42.0982	-121.297	5.98188	-13.5229	-123.693	-20.4741	-20.1867	-105.303	-39.945	-9.38333	-97.1043	34.2822	25.7825	-89.7936	23.9262	58.0412	-59.0618	26.3509	33.8622	
85	0.708333	-38.7371	-5.22204	30.3041	-30.0817	-14.0488	2.50015	-22.8779	-22.0805	-23.4063	-17.8251	-29.9638	-45.6388	-67.4115	25.3338	-38.9292	-68.8644	24.4204	-65.4434	-72.1295	12.8915	-92.3132	-92.2657	30.9789	-37.3979	-102.031	27.2587	-69.2559	-110.636	10.1862	-94.1379	-116.022	15.6677	-29.1671	-120.938	-1.54107	-53.7614	-125.16	-34.228	-59.7799	-131.51	0.516102	-15.2127	-131.913	-20.422	-26.882	-120.53	-50.4026	-24.9827	-101.742	27.55	24.559	-93.3566	24.0695	50.7975	-62.9744	23.686	32.32	
86	0.716667	-44.9419	0.504021	28.1533	-30.7207	-8.23081	0.556613	-18.8365	-15.7819	-23.3208	-15.3487	-24.2969	-49.2491	-75.8621	19.075	-41.926	-72.0221	20.146	-72.3763	-74.507	11.418	-99.4213	-104.222	20.2739	-40.0005	-109.106	18.5966	-69.4045	-119.218	5.44588	-103.346	-119.828	4.86006	-33.1418	-129.957	-9.03713	-59.1824	-133.191	-29.4016	-74.3179	-132.642	-9.86722	-16.8197	-135.529	-29.2916	-35.0409	-134.706	-54.0269	-41.7245	-109.697	17.8663	20.396	-101.996	21.1006	44.5836	-72.0491	25.3754	25.0956	
87	0.725	-50.0378	10.7273	24.9654	-33.7444	7.87237	-1.95666	-25.7729	3.20507	-27.5212	-12.9617	-0.950198	-48.1146	-83.9114	15.2842	-48.7028	-82.2403	14.6058	-74.8047	-79.8697	8.51858	-102.097	-108.762	9.5461	-48.3623	-113.012	6.13338	-75.7111	-117.507	-5.59101	-104.314	-125.221	-10.3024	-35.5447	-128.598	-18.8782	-61.0392	-130.712	-37.3305	-84.3018	-130.698	-26.8082	-19.1926	-135.297	-45.0373	-38.514	-132.168	-63.9499	-51.4674	-118.844	7.18264	14.4617	-112.854	11.0812	44.4158	-85.8059	24.0408	20.3648	
88	0.733333	-66.0486	25.5089	20.3517	-52.6811	30.8086	-3.31635	-40.1549	37.3722	-32.9834	-31.4279	33.1522	-53.9535	-93.6562	9.05559	-49.1951	-90.2785	10.2424	-81.5347	-87.8603	3.56292	-103.084	-114.448	-10.1445	-53.0136	-114.825	-15.2972	-80.7325	-110.876	-22.5408	-107.817	-116.869	-31.8788	-36.8946	-116.399	-39.0132	-62.4513	-112.921	-54.554	-86.0383	-115.62	-47.0339	-22.0946	-112.714	-60.8687	-39.7169	-107.099	-78.9094	-55.3837	-120.214	-10.8113	11.5546	-120.692	-6.77743	38.8011	-100.855	17.4796	12.4733	
89	0.741667	-88.2392	24.3418	17.0223	-81.4708	36.0781	-7.37709	-74.3285	44.658	-35.506	-66.18	52.2237	-52.4453	-101.381	-4.22597	-53.5284	-98.3098	-3.31943	-84.0396	-91.0984	-3.25975	-109.656	-108.411	-30.3223	-56.1221	-104.631	-32.9075	-84.2478	-96.0215	-42.3688	-111.784	-99.5029	-48.192	-42.3527	-94.1592	-58.9218	-65.6503	-80.4704	-65.9203	-88.5794	-90.4479	-65.1275	-21.1329	-79.0527	-73.5409	-42.3342	-62.8144	-80.6224	-60.7689	-113.607	-37.2803	8.65967	-117.693	-31.4267	36.798	-114.36	0.348286	9.66884	
90	0.75	-112.174	13.2657	15.8495	-110.023	22.8136	-10.7028	-111.554	37.3053	-40.6363	-107.197	43.1105	-60.0127	-106.012	-23.7166	-54.4864	-104.908	-21.6548	-82.2617	-95.9218	-19.9337	-111.246	-97.684	-45.9975	-53.956	-91.7043	-49.9402	-82.0125	-76.2517	-53.1157	-114.112	-81.3091	-57.4244	-41.6762	-67.2168	-63.6335	-67.1284	-43.7294	-64.2253	-89.2532	-61.9523	-69.3051	-25.701	-49.335	-67.3529	-41.2239	-29.2486	-63.364	-54.6115	-102.623	-51.0236	5.38588	-105.957	-51.4086	32.8688	-121.964	-21.7101	8.19541	
91	0.758333	-129.352	-6.88085	12.9504	-135.797	3.55559	-12.2653	-141.545	13.342	-38.9047	-141.191	20.04	-58.353	-110.973	-38.685	-60.2055	-108.643	-39.6762	-83.937	-104.918	-36.9269	-110.555	-92.1504	-55.4891	-54.8337	-81.0958	-57.103	-87.1067	-64.3878	-53.8758	-113.673	-66.0527	-59.5274	-46.7143	-48.6012	-55.9009	-63.578	-27.0697	-40.7844	-78.9692	-50.4875	-58.4338	-21.7925	-30.7518	-47.9082	-36.9936	-13.5007	-30.0389	-47.0288	-93.8459	-63.3879	4.02589	-99.7203	-61.9388	31.4503	-119.707	-42.2108	6.20664	
92	0.766667	-139.889	-24.8078	15.5135	-146.354	-18.6229	-8.71702	-160.48	-14.2205	-38.1861	-163.769	-8.29967	-57.8886	-113.712	-52.5998	-53.6423	-115.445	-55.8528	-82.647	-112.466	-55.1588	-105.432	-87.1703	-62.0945	-54.5995	-77.0928	-55.4216	-83.5152	-63.5492	-36.491	-111.316	-62.9696	-52.9042	-42.7717	-47.9769	-34.9903	-61.0111	-39.4766	-9.38436	-67.4213	-47.6168	-46.8128	-22.4243	-38.695	-26.7532	-33.6832	-35.5336	1.05698	-38.4845	-86.7173	-69.2393	7.29551	-97.8548	-66.6849	37.1941	-119.19	-56.6734	13.1564	
93	0.775	-146.833	-43.7615	19.8509	-158.331	-40.7801	-7.67386	-171.556	-37.8098	-29.4501	-185.006	-34.3565	-47.966	-123.165	-64.7339	-50.1081	-122.707	-67.4059	-77.9628	-120.621	-65.7429	-106.89	-93.9127	-56.9244	-59.0846	-86.8889	-39.5779	-80.5205	-77.2346	-5.26181	-89.2399	-70.7617	-43.8979	-43.0795	-65.8412	-20.9208	-53.4072	-70.1823	11.9325	-49.2656	-60.1874	-41.1774	-24.8398	-57.4135	-16.738	-33.3521	-63.5129	10.8116	-31.5389	-91.1763	-75.659	5.76521	-97.7457	-73.4773	35.3781	-123.72	-71.2983	14.045	
94	0.783333	-149.283	-53.5546	24.733	-168.577	-51.1648	-0.238602	-183.354	-51.6735	-27.0555	-192.49	-48.275	-41.9985	-130.512	-66.952	-54.1623	-126.541	-64.9545	-79.6076	-126.742	-55.6252	-104.21	-105.448	-48.9059	-57.3039	-103.389	-19.89	-71.0021	-99.4443	15.753	-58.8101	-84.2418	-41.2753	-42.2746	-84.5302	-15.0395	-49.7878	-89.299	16.6609	-34.699	-69.841	-40.912	-27.6478	-65.3005	-17.2997	-33.3366	-77.5652	10.5841	-31.5542	-95.2369	-76.2636	5.67016	-97.0184	-79.5035	35.2746	-124.587	-76.9468	15.2697	
95	0.791667	-154.704	-57.541	28.0558	-174.092	-55.7793	7.19471	-188.007	-58.2108	-20.5133	-204.399	-54.4569	-33.6534	-140.029	-63.7345	-55.1181	-138.175	-51.0685	-80.6968	-136.761	-27.3481	-98.8887	-114.271	-45.4919	-53.6808	-117.598	-17.2671	-61.5328	-116.488	15.6166	-37.6894	-94.3573	-43.5563	-44.2223	-94.9506	-18.2171	-50.9005	-101.321	9.29098	-34.7042	-75.0842	-47.9627	-29.0467	-76.5694	-19.25	-43.1389	-90.1106	2.65885	-37.2865	-98.7577	-80.8607	1.4545	-101.768	-80.0714	34.0319	-135.559	-81.3792	15.2934	
96	0.8	-161.191	-60.1775	30.4142	-178.801	-60.6209	8.46245	-200.547	-62.1822	-16.2945	-211.012	-59.559	-31.9672	-150.694	-59.6016	-49.7663	-153.391	-36.9665	-72.5813	-148.01	-6.3479	-77.5271	-125.535	-52.7779	-50.1266	-125.592	-19.3011	-59.6704	-127.231	7.03006	-34.8249	-107.986	-55.3388	-48.2696	-105.961	-26.6782	-59.9435	-109.755	-0.612462	-41.884	-86.0291	-58.4696	-35.211	-83.7589	-36.3303	-51.7187	-90.6101	-10.0728	-46.3682	-106.47	-83.6504	2.75318	-104.293	-86.4736	31.9486	-142.314	-81.8468	20.6045	
97	0.808333	-165.137	-60.4991	33.1318	-186.071	-60.4763	12.9029	-202.324	-60.4546	-9.96068	-218.63	-59.4619	-31.2801	-158.541	-60.1719	-45.4558	-158.423	-28.4559	-63.9486	-154.871	1.48421	-57.1608	-131.089	-63.302	-52.3796	-133.839	-31.0403	-67.6922	-135.316	-3.53399	-42.1132	-114.134	-68.5742	-48.4764	-108.258	-44.6781	-66.9383	-113.33	-14.2986	-53.6827	-92.4481	-68.3787	-32.9347	-88.7442	-52.3336	-56.8854	-93.3764	-23.2245	-58.8121	-116.326	-87.2199	4.57097	-109.117	-85.4767	37.0725	-144.784	-84.2042	19.0499	
98	0.816667	-172.461	-61.6778	35.0755	-194.285	-57.9247	15.913	-210.674	-57.058	-11.7478	-217.709	-51.6156	-31.0562	-159.783	-60.7562	-44.6387	-161.067	-28.7327	-60.1887	-157.994	-1.58617	-50.2458	-136.552	-74.4448	-53.1136	-138.485	-52.6872	-76.4223	-137.226	-13.908	-58.4695	-116.427	-77.0751	-46.6771	-110.85	-61.3007	-69.8945	-115.813	-28.9994	-68.9037	-96.3793	-70.4947	-31.7022	-91.0957	-58.5765	-56.2439	-92.9812	-29.68	-65.3376	-118.418	-87.1687	4.99621	-111.938	-86.2746	37.524	-150.582	-83.8204	24.6729	
